General
Complete name                            : BIONICLE_The_Legend_Reborn_2009_NTSC_DVD9.iso
Format                                   : ISO / DVD-Video
Format profile                           : DVD-Video (UDF 1.02)
File size                                : 6.82 GiB (7,322,912,768 bytes)
Duration                                 : 1 h 20 min (Main Feature + Direct Play Extras)
Overall bit rate mode                    : Variable
Overall bit rate                         : 12.1 Mb/s
Volume Identifier                        : BIONICLE_THE_LEGEND_REBORN
Volume Set Identifier                    : 3E71E1A2_BIONICLE_TLR
Provider Identifier                      : UNIVERSAL_STUDIOS
Development Software                     : Sonic Scenarist DVD 4.5.0
Mastering Date                           : 2009-07-28 14:32:11

Video
ID                                       : 224 (0xE0)
Format                                   : MPEG Video
Format version                           : Version 2
Format profile                           : Main@Main
Format settings                          : BVOP
Format settings, BVOP                    : Yes
Format settings, Matrix                  : Custom (Universal Pictures DVD Matrix)
Format settings, GOP                     : M=3, N=15 (Standard NTSC Closed GOP)
Duration                                 : 1 h 20 min 14 s
Bit rate mode                            : Variable
Bit rate                                 : 5 850 kb/s
Maximum bit rate                         : 9 800 kb/s
Width                                    : 720 pixels
Height                                   : 480 pixels
Display aspect ratio                     : 16:9
Original display aspect ratio            : 16:9
Frame rate                               : 29.970 (30000/1001) FPS
Standard                                 : NTSC
Color space                              : YUV
Chroma subsampling                       : 4:2:0
Bit depth                                : 8 bits
Scan type                                : Interlaced
Scan order                               : Bottom Field First (2:3 Pulldown / Telecine Flagged)
Compression mode                         : Lossy
Bits/(Pixel*Frame)                       : 0.565
Time code of first frame                 : 00:00:00:00
Stream size                              : 3.28 GiB (48%)

Audio #1
ID                                       : 128 (0x80)
Format                                   : AC-3
Format/Info                              : Audio Coding 3
Commercial name                          : Dolby Digital
Muxing mode                              : DVD-Video
Duration                                 : 1 h 20 min 14 s
Bit rate mode                            : Constant
Bit rate                                 : 448 kb/s
Channel(s)                               : 6 channels
Channel layout                           : L R C LFE Ls Rs
Sampling rate                            : 48.0 kHz
Frame rate                               : 31.250 FPS (1536 SPF)
Bit depth                                : 16 bits
Compression mode                         : Lossy
Stream size                              : 257 MiB (4%)
Language                                 : English
Service kind                             : Complete Main

Audio #2
ID                                       : 129 (0x81)
Format                                   : AC-3
Format/Info                              : Audio Coding 3
Commercial name                          : Dolby Digital
Muxing mode                              : DVD-Video
Duration                                 : 1 h 20 min 14 s
Bit rate mode                            : Constant
Bit rate                                 : 384 kb/s
Channel(s)                               : 6 channels
Channel layout                           : L R C LFE Ls Rs
Sampling rate                            : 48.0 kHz
Frame rate                               : 31.250 FPS (1536 SPF)
Bit depth                                : 16 bits
Compression mode                         : Lossy
Stream size                              : 220 MiB (3%)
Language                                 : French (Français)
Service kind                             : Complete Main

Audio #3
ID                                       : 130 (0x82)
Format                                   : AC-3
Format/Info                              : Audio Coding 3
Commercial name                          : Dolby Digital
Muxing mode                              : DVD-Video
Duration                                 : 1 h 20 min 14 s
Bit rate mode                            : Constant
Bit rate                                 : 384 kb/s
Channel(s)                               : 6 channels
Channel layout                           : L R C LFE Ls Rs
Sampling rate                            : 48.0 kHz
Frame rate                               : 31.250 FPS (1536 SPF)
Bit depth                                : 16 bits
Compression mode                         : Lossy
Stream size                              : 220 MiB (3%)
Language                                 : Spanish (Español)
Service kind                             : Complete Main

Text #1
ID                                       : 32 (0x20)
Format                                   : RLE
Format/Info                              : Run-length encoding
Muxing mode                              : DVD-Video
Duration                                 : 1 h 20 min 14 s
Language                                 : English
Caption                                  : SDH (Subtitles for the Deaf and Hard of Hearing)

Text #2
ID                                       : 33 (0x21)
Format                                   : RLE
Format/Info                              : Run-length encoding
Muxing mode                              : DVD-Video
Duration                                 : 1 h 20 min 14 s
Language                                 : French (Français)

Text #3
ID                                       : 34 (0x22)
Format                                   : RLE
Format/Info                              : Run-length encoding
Muxing mode                              : DVD-Video
Duration                                 : 1 h 20 min 14 s
Language                                 : Spanish (Español)

Menu
Format                                   : DVD-Video / Interactive Director Multi-PGC
Duration                                 : 1 h 20 min 14 s
List of Playable Titles                  : 
  - VTS_01_1.VOB (Title 1: Main Feature - "BIONICLE: The Legend Reborn")
  - VTS_02_1.VOB (Title 2: Deleted Scenes)
  - VTS_03_1.VOB (Title 3: "Bye Bye Babylon" Music Video by Cryoshell)
  - VTS_04_1.VOB (Title 4: Character Gallery / Concept Art Compilation)
  - VTS_05_1.VOB (Title 5: Trailer - "LEGO: The Adventures of Clutch Powers")
  - VTS_06_1.VOB (Title 6: Trailer - "Barbie and the Three Musketeers")